<mxfile host="app.diagrams.net" modified="2023-04-19T06:06:08.159Z" agent="Mozilla/5.0 (Macintosh; Intel Mac OS X 10_15_7) AppleWebKit/537.36 (KHTML, like Gecko) Chrome/112.0.0.0 Safari/537.36" etag="-Qe4GtRbNVCDeT701XhH" version="21.1.9" type="device">
  <diagram name="第 1 页" id="QLZJ1L3jq67yCuwpPgn8">
    <mxGraphModel dx="1434" dy="875" grid="0" gridSize="10" guides="1" tooltips="1" connect="1" arrows="1" fold="1" page="1" pageScale="1" pageWidth="1654" pageHeight="2336" math="0" shadow="0">
      <root>
        <mxCell id="0" />
        <mxCell id="1" parent="0" />
        <mxCell id="d9wNvwzPSucR8l-naQEp-1" value="6" style="rounded=0;whiteSpace=wrap;html=1;fontFamily=Songti TC;" parent="1" vertex="1">
          <mxGeometry x="160" y="200" width="40" height="40" as="geometry" />
        </mxCell>
        <mxCell id="d9wNvwzPSucR8l-naQEp-10" value="4" style="rounded=0;whiteSpace=wrap;html=1;fontFamily=Songti TC;" parent="1" vertex="1">
          <mxGeometry x="200" y="200" width="40" height="40" as="geometry" />
        </mxCell>
        <mxCell id="d9wNvwzPSucR8l-naQEp-11" value="&lt;font color=&quot;#0000ff&quot;&gt;3&lt;/font&gt;" style="rounded=0;whiteSpace=wrap;html=1;fontFamily=Songti TC;" parent="1" vertex="1">
          <mxGeometry x="240" y="200" width="40" height="40" as="geometry" />
        </mxCell>
        <mxCell id="d9wNvwzPSucR8l-naQEp-12" value="2" style="rounded=0;whiteSpace=wrap;html=1;fontFamily=Songti TC;" parent="1" vertex="1">
          <mxGeometry x="280" y="200" width="40" height="40" as="geometry" />
        </mxCell>
        <mxCell id="d9wNvwzPSucR8l-naQEp-13" value="3" style="rounded=0;whiteSpace=wrap;html=1;fontFamily=Songti TC;" parent="1" vertex="1">
          <mxGeometry x="320" y="200" width="40" height="40" as="geometry" />
        </mxCell>
        <mxCell id="d9wNvwzPSucR8l-naQEp-14" value="5" style="rounded=0;whiteSpace=wrap;html=1;fontFamily=Songti TC;" parent="1" vertex="1">
          <mxGeometry x="360" y="200" width="40" height="40" as="geometry" />
        </mxCell>
        <mxCell id="d9wNvwzPSucR8l-naQEp-19" value="i" style="text;html=1;align=center;verticalAlign=middle;resizable=0;points=[];autosize=1;strokeColor=none;fillColor=none;fontColor=#0000FF;fontSize=20;fontFamily=Songti TC;" parent="1" vertex="1">
          <mxGeometry x="120" y="160" width="30" height="40" as="geometry" />
        </mxCell>
        <mxCell id="d9wNvwzPSucR8l-naQEp-30" value="下标" style="text;html=1;align=center;verticalAlign=middle;resizable=0;points=[];autosize=1;strokeColor=none;fillColor=none;fontFamily=Songti TC;" parent="1" vertex="1">
          <mxGeometry x="110" y="235" width="50" height="30" as="geometry" />
        </mxCell>
        <mxCell id="d9wNvwzPSucR8l-naQEp-31" value="&lt;font color=&quot;#ff0000&quot;&gt;j&lt;/font&gt;" style="text;html=1;align=center;verticalAlign=middle;resizable=0;points=[];autosize=1;strokeColor=none;fillColor=none;fontColor=#0000FF;fontSize=20;fontFamily=Songti TC;" parent="1" vertex="1">
          <mxGeometry x="400" y="160" width="30" height="40" as="geometry" />
        </mxCell>
        <mxCell id="d9wNvwzPSucR8l-naQEp-32" value="&lt;font color=&quot;#000000&quot; style=&quot;font-size: 15px;&quot;&gt;arr[mid]=3&lt;/font&gt;" style="text;html=1;align=center;verticalAlign=middle;resizable=0;points=[];autosize=1;strokeColor=none;fillColor=none;fontColor=#0000FF;fontSize=15;fontFamily=Songti TC;" parent="1" vertex="1">
          <mxGeometry x="230" y="90" width="90" height="30" as="geometry" />
        </mxCell>
        <mxCell id="d9wNvwzPSucR8l-naQEp-33" value="&lt;font style=&quot;font-size: 18px;&quot;&gt;arr&lt;/font&gt;" style="text;html=1;align=center;verticalAlign=middle;resizable=0;points=[];autosize=1;strokeColor=none;fillColor=none;fontFamily=Songti TC;" parent="1" vertex="1">
          <mxGeometry x="110" y="200" width="50" height="40" as="geometry" />
        </mxCell>
        <mxCell id="d9wNvwzPSucR8l-naQEp-20" value="0" style="rounded=0;whiteSpace=wrap;html=1;fontFamily=Songti TC;container=0;" parent="1" vertex="1">
          <mxGeometry x="160" y="240" width="40" height="20" as="geometry" />
        </mxCell>
        <mxCell id="d9wNvwzPSucR8l-naQEp-21" value="1" style="rounded=0;whiteSpace=wrap;html=1;fontFamily=Songti TC;container=0;" parent="1" vertex="1">
          <mxGeometry x="200" y="240" width="40" height="20" as="geometry" />
        </mxCell>
        <mxCell id="d9wNvwzPSucR8l-naQEp-22" value="2" style="rounded=0;whiteSpace=wrap;html=1;fontFamily=Songti TC;container=0;" parent="1" vertex="1">
          <mxGeometry x="240" y="240" width="40" height="20" as="geometry" />
        </mxCell>
        <mxCell id="d9wNvwzPSucR8l-naQEp-23" value="3" style="rounded=0;whiteSpace=wrap;html=1;fontFamily=Songti TC;container=0;" parent="1" vertex="1">
          <mxGeometry x="280" y="240" width="40" height="20" as="geometry" />
        </mxCell>
        <mxCell id="d9wNvwzPSucR8l-naQEp-24" value="4" style="rounded=0;whiteSpace=wrap;html=1;fontFamily=Songti TC;container=0;" parent="1" vertex="1">
          <mxGeometry x="320" y="240" width="40" height="20" as="geometry" />
        </mxCell>
        <mxCell id="d9wNvwzPSucR8l-naQEp-25" value="5" style="rounded=0;whiteSpace=wrap;html=1;fontFamily=Songti TC;container=0;" parent="1" vertex="1">
          <mxGeometry x="360" y="240" width="40" height="20" as="geometry" />
        </mxCell>
        <mxCell id="d9wNvwzPSucR8l-naQEp-34" value="6" style="rounded=0;whiteSpace=wrap;html=1;fontFamily=Songti TC;fillColor=#dae8fc;strokeColor=#6c8ebf;" parent="1" vertex="1">
          <mxGeometry x="160" y="340" width="40" height="40" as="geometry" />
        </mxCell>
        <mxCell id="d9wNvwzPSucR8l-naQEp-35" value="4" style="rounded=0;whiteSpace=wrap;html=1;fontFamily=Songti TC;" parent="1" vertex="1">
          <mxGeometry x="200" y="340" width="40" height="40" as="geometry" />
        </mxCell>
        <mxCell id="d9wNvwzPSucR8l-naQEp-36" value="&lt;font color=&quot;#0000ff&quot;&gt;3&lt;/font&gt;" style="rounded=0;whiteSpace=wrap;html=1;fontFamily=Songti TC;" parent="1" vertex="1">
          <mxGeometry x="240" y="340" width="40" height="40" as="geometry" />
        </mxCell>
        <mxCell id="d9wNvwzPSucR8l-naQEp-37" value="2" style="rounded=0;whiteSpace=wrap;html=1;fontFamily=Songti TC;" parent="1" vertex="1">
          <mxGeometry x="280" y="340" width="40" height="40" as="geometry" />
        </mxCell>
        <mxCell id="d9wNvwzPSucR8l-naQEp-38" value="3" style="rounded=0;whiteSpace=wrap;html=1;fontFamily=Songti TC;fillColor=#ffe6cc;strokeColor=#d79b00;" parent="1" vertex="1">
          <mxGeometry x="320" y="340" width="40" height="40" as="geometry" />
        </mxCell>
        <mxCell id="d9wNvwzPSucR8l-naQEp-39" value="5" style="rounded=0;whiteSpace=wrap;html=1;fontFamily=Songti TC;fillColor=#dae8fc;strokeColor=#6c8ebf;" parent="1" vertex="1">
          <mxGeometry x="360" y="340" width="40" height="40" as="geometry" />
        </mxCell>
        <mxCell id="d9wNvwzPSucR8l-naQEp-40" value="i" style="text;html=1;align=center;verticalAlign=middle;resizable=0;points=[];autosize=1;strokeColor=none;fillColor=none;fontColor=#0000FF;fontSize=20;fontFamily=Songti TC;" parent="1" vertex="1">
          <mxGeometry x="165" y="300" width="30" height="40" as="geometry" />
        </mxCell>
        <mxCell id="d9wNvwzPSucR8l-naQEp-41" value="下标" style="text;html=1;align=center;verticalAlign=middle;resizable=0;points=[];autosize=1;strokeColor=none;fillColor=none;fontFamily=Songti TC;" parent="1" vertex="1">
          <mxGeometry x="110" y="375" width="50" height="30" as="geometry" />
        </mxCell>
        <mxCell id="d9wNvwzPSucR8l-naQEp-42" value="&lt;font color=&quot;#ff0000&quot;&gt;j&lt;/font&gt;" style="text;html=1;align=center;verticalAlign=middle;resizable=0;points=[];autosize=1;strokeColor=none;fillColor=none;fontColor=#0000FF;fontSize=20;fontFamily=Songti TC;" parent="1" vertex="1">
          <mxGeometry x="325" y="300" width="30" height="40" as="geometry" />
        </mxCell>
        <mxCell id="d9wNvwzPSucR8l-naQEp-43" value="&lt;font style=&quot;font-size: 18px;&quot;&gt;arr&lt;/font&gt;" style="text;html=1;align=center;verticalAlign=middle;resizable=0;points=[];autosize=1;strokeColor=none;fillColor=none;fontFamily=Songti TC;" parent="1" vertex="1">
          <mxGeometry x="110" y="340" width="50" height="40" as="geometry" />
        </mxCell>
        <mxCell id="d9wNvwzPSucR8l-naQEp-44" value="0" style="rounded=0;whiteSpace=wrap;html=1;fontFamily=Songti TC;container=0;" parent="1" vertex="1">
          <mxGeometry x="160" y="380" width="40" height="20" as="geometry" />
        </mxCell>
        <mxCell id="d9wNvwzPSucR8l-naQEp-45" value="1" style="rounded=0;whiteSpace=wrap;html=1;fontFamily=Songti TC;container=0;" parent="1" vertex="1">
          <mxGeometry x="200" y="380" width="40" height="20" as="geometry" />
        </mxCell>
        <mxCell id="d9wNvwzPSucR8l-naQEp-46" value="2" style="rounded=0;whiteSpace=wrap;html=1;fontFamily=Songti TC;container=0;" parent="1" vertex="1">
          <mxGeometry x="240" y="380" width="40" height="20" as="geometry" />
        </mxCell>
        <mxCell id="d9wNvwzPSucR8l-naQEp-47" value="3" style="rounded=0;whiteSpace=wrap;html=1;fontFamily=Songti TC;container=0;" parent="1" vertex="1">
          <mxGeometry x="280" y="380" width="40" height="20" as="geometry" />
        </mxCell>
        <mxCell id="d9wNvwzPSucR8l-naQEp-48" value="4" style="rounded=0;whiteSpace=wrap;html=1;fontFamily=Songti TC;container=0;" parent="1" vertex="1">
          <mxGeometry x="320" y="380" width="40" height="20" as="geometry" />
        </mxCell>
        <mxCell id="d9wNvwzPSucR8l-naQEp-49" value="5" style="rounded=0;whiteSpace=wrap;html=1;fontFamily=Songti TC;container=0;" parent="1" vertex="1">
          <mxGeometry x="360" y="380" width="40" height="20" as="geometry" />
        </mxCell>
        <mxCell id="d9wNvwzPSucR8l-naQEp-50" value="&lt;font style=&quot;font-size: 12px;&quot; color=&quot;#000000&quot;&gt;i：找 &amp;gt;= arr[mid]的元素&lt;br&gt;&lt;/font&gt;" style="text;html=1;align=left;verticalAlign=middle;resizable=0;points=[];autosize=1;strokeColor=none;fillColor=none;fontColor=#0000FF;fontSize=15;fontFamily=Songti TC;" parent="1" vertex="1">
          <mxGeometry x="110" y="130" width="150" height="30" as="geometry" />
        </mxCell>
        <mxCell id="d9wNvwzPSucR8l-naQEp-51" value="&lt;font style=&quot;font-size: 12px;&quot; color=&quot;#000000&quot;&gt;j：找 &amp;lt;= arr[mid]的元素&lt;/font&gt;&lt;font style=&quot;font-size: 12px;&quot; color=&quot;#000000&quot;&gt;&lt;br&gt;&lt;/font&gt;" style="text;html=1;align=left;verticalAlign=middle;resizable=0;points=[];autosize=1;strokeColor=none;fillColor=none;fontColor=#0000FF;fontSize=15;fontFamily=Songti TC;" parent="1" vertex="1">
          <mxGeometry x="315" y="130" width="150" height="30" as="geometry" />
        </mxCell>
        <mxCell id="d9wNvwzPSucR8l-naQEp-53" value="&lt;font style=&quot;font-size: 12px;&quot; color=&quot;#000000&quot;&gt;初始状态&lt;br&gt;&lt;/font&gt;" style="text;html=1;align=left;verticalAlign=middle;resizable=0;points=[];autosize=1;strokeColor=none;fillColor=none;fontColor=#0000FF;fontSize=15;fontFamily=Songti TC;" parent="1" vertex="1">
          <mxGeometry x="50" y="200" width="70" height="30" as="geometry" />
        </mxCell>
        <mxCell id="d9wNvwzPSucR8l-naQEp-54" value="&lt;font style=&quot;font-size: 12px;&quot; color=&quot;#000000&quot;&gt;&lt;font style=&quot;font-size: 12px;&quot;&gt;i和j停下来，且下标合法，交换&lt;br&gt;&lt;/font&gt;交换后各自往中间走1格&lt;br&gt;&lt;/font&gt;" style="text;html=1;align=left;verticalAlign=middle;resizable=0;points=[];autosize=1;strokeColor=none;fillColor=none;fontColor=#0000FF;fontSize=15;fontFamily=Songti TC;" parent="1" vertex="1">
          <mxGeometry x="180" y="400" width="190" height="50" as="geometry" />
        </mxCell>
        <mxCell id="d9wNvwzPSucR8l-naQEp-55" value="3" style="rounded=0;whiteSpace=wrap;html=1;fontFamily=Songti TC;fillColor=#ffe6cc;strokeColor=#d79b00;" parent="1" vertex="1">
          <mxGeometry x="160" y="500" width="40" height="40" as="geometry" />
        </mxCell>
        <mxCell id="d9wNvwzPSucR8l-naQEp-56" value="4" style="rounded=0;whiteSpace=wrap;html=1;fontFamily=Songti TC;fillColor=#dae8fc;strokeColor=#6c8ebf;" parent="1" vertex="1">
          <mxGeometry x="200" y="500" width="40" height="40" as="geometry" />
        </mxCell>
        <mxCell id="d9wNvwzPSucR8l-naQEp-57" value="&lt;font color=&quot;#0000ff&quot;&gt;3&lt;/font&gt;" style="rounded=0;whiteSpace=wrap;html=1;fontFamily=Songti TC;" parent="1" vertex="1">
          <mxGeometry x="240" y="500" width="40" height="40" as="geometry" />
        </mxCell>
        <mxCell id="d9wNvwzPSucR8l-naQEp-58" value="2" style="rounded=0;whiteSpace=wrap;html=1;fontFamily=Songti TC;fillColor=#ffe6cc;strokeColor=#d79b00;" parent="1" vertex="1">
          <mxGeometry x="280" y="500" width="40" height="40" as="geometry" />
        </mxCell>
        <mxCell id="d9wNvwzPSucR8l-naQEp-59" value="6" style="rounded=0;whiteSpace=wrap;html=1;fontFamily=Songti TC;fillColor=#dae8fc;strokeColor=#6c8ebf;" parent="1" vertex="1">
          <mxGeometry x="320" y="500" width="40" height="40" as="geometry" />
        </mxCell>
        <mxCell id="d9wNvwzPSucR8l-naQEp-60" value="5" style="rounded=0;whiteSpace=wrap;html=1;fontFamily=Songti TC;fillColor=#dae8fc;strokeColor=#6c8ebf;" parent="1" vertex="1">
          <mxGeometry x="360" y="500" width="40" height="40" as="geometry" />
        </mxCell>
        <mxCell id="d9wNvwzPSucR8l-naQEp-61" value="i" style="text;html=1;align=center;verticalAlign=middle;resizable=0;points=[];autosize=1;strokeColor=none;fillColor=none;fontColor=#0000FF;fontSize=20;fontFamily=Songti TC;" parent="1" vertex="1">
          <mxGeometry x="205" y="460" width="30" height="40" as="geometry" />
        </mxCell>
        <mxCell id="d9wNvwzPSucR8l-naQEp-62" value="下标" style="text;html=1;align=center;verticalAlign=middle;resizable=0;points=[];autosize=1;strokeColor=none;fillColor=none;fontFamily=Songti TC;" parent="1" vertex="1">
          <mxGeometry x="110" y="535" width="50" height="30" as="geometry" />
        </mxCell>
        <mxCell id="d9wNvwzPSucR8l-naQEp-63" value="&lt;font color=&quot;#ff0000&quot;&gt;j&lt;/font&gt;" style="text;html=1;align=center;verticalAlign=middle;resizable=0;points=[];autosize=1;strokeColor=none;fillColor=none;fontColor=#0000FF;fontSize=20;fontFamily=Songti TC;" parent="1" vertex="1">
          <mxGeometry x="285" y="460" width="30" height="40" as="geometry" />
        </mxCell>
        <mxCell id="d9wNvwzPSucR8l-naQEp-64" value="&lt;font style=&quot;font-size: 18px;&quot;&gt;arr&lt;/font&gt;" style="text;html=1;align=center;verticalAlign=middle;resizable=0;points=[];autosize=1;strokeColor=none;fillColor=none;fontFamily=Songti TC;" parent="1" vertex="1">
          <mxGeometry x="110" y="500" width="50" height="40" as="geometry" />
        </mxCell>
        <mxCell id="d9wNvwzPSucR8l-naQEp-65" value="0" style="rounded=0;whiteSpace=wrap;html=1;fontFamily=Songti TC;container=0;" parent="1" vertex="1">
          <mxGeometry x="160" y="540" width="40" height="20" as="geometry" />
        </mxCell>
        <mxCell id="d9wNvwzPSucR8l-naQEp-66" value="1" style="rounded=0;whiteSpace=wrap;html=1;fontFamily=Songti TC;container=0;" parent="1" vertex="1">
          <mxGeometry x="200" y="540" width="40" height="20" as="geometry" />
        </mxCell>
        <mxCell id="d9wNvwzPSucR8l-naQEp-67" value="2" style="rounded=0;whiteSpace=wrap;html=1;fontFamily=Songti TC;container=0;" parent="1" vertex="1">
          <mxGeometry x="240" y="540" width="40" height="20" as="geometry" />
        </mxCell>
        <mxCell id="d9wNvwzPSucR8l-naQEp-68" value="3" style="rounded=0;whiteSpace=wrap;html=1;fontFamily=Songti TC;container=0;" parent="1" vertex="1">
          <mxGeometry x="280" y="540" width="40" height="20" as="geometry" />
        </mxCell>
        <mxCell id="d9wNvwzPSucR8l-naQEp-69" value="4" style="rounded=0;whiteSpace=wrap;html=1;fontFamily=Songti TC;container=0;" parent="1" vertex="1">
          <mxGeometry x="320" y="540" width="40" height="20" as="geometry" />
        </mxCell>
        <mxCell id="d9wNvwzPSucR8l-naQEp-70" value="5" style="rounded=0;whiteSpace=wrap;html=1;fontFamily=Songti TC;container=0;" parent="1" vertex="1">
          <mxGeometry x="360" y="540" width="40" height="20" as="geometry" />
        </mxCell>
        <mxCell id="d9wNvwzPSucR8l-naQEp-71" value="&lt;font style=&quot;&quot; color=&quot;#000000&quot;&gt;&lt;span style=&quot;font-size: 13px;&quot;&gt;同上&lt;/span&gt;&lt;br&gt;&lt;/font&gt;" style="text;html=1;align=left;verticalAlign=middle;resizable=0;points=[];autosize=1;strokeColor=none;fillColor=none;fontColor=#0000FF;fontSize=15;fontFamily=Songti TC;" parent="1" vertex="1">
          <mxGeometry x="250" y="565" width="50" height="30" as="geometry" />
        </mxCell>
        <mxCell id="d9wNvwzPSucR8l-naQEp-72" value="3" style="rounded=0;whiteSpace=wrap;html=1;fontFamily=Songti TC;fillColor=#ffe6cc;strokeColor=#d79b00;" parent="1" vertex="1">
          <mxGeometry x="160" y="625" width="40" height="40" as="geometry" />
        </mxCell>
        <mxCell id="d9wNvwzPSucR8l-naQEp-73" value="2" style="rounded=0;whiteSpace=wrap;html=1;fontFamily=Songti TC;fillColor=#ffe6cc;strokeColor=#d79b00;" parent="1" vertex="1">
          <mxGeometry x="200" y="625" width="40" height="40" as="geometry" />
        </mxCell>
        <mxCell id="d9wNvwzPSucR8l-naQEp-74" value="&lt;font color=&quot;#0000ff&quot;&gt;3&lt;/font&gt;" style="rounded=0;whiteSpace=wrap;html=1;fontFamily=Songti TC;" parent="1" vertex="1">
          <mxGeometry x="240" y="625" width="40" height="40" as="geometry" />
        </mxCell>
        <mxCell id="d9wNvwzPSucR8l-naQEp-75" value="4" style="rounded=0;whiteSpace=wrap;html=1;fontFamily=Songti TC;fillColor=#dae8fc;strokeColor=#6c8ebf;" parent="1" vertex="1">
          <mxGeometry x="280" y="625" width="40" height="40" as="geometry" />
        </mxCell>
        <mxCell id="d9wNvwzPSucR8l-naQEp-76" value="6" style="rounded=0;whiteSpace=wrap;html=1;fontFamily=Songti TC;fillColor=#dae8fc;strokeColor=#6c8ebf;" parent="1" vertex="1">
          <mxGeometry x="320" y="625" width="40" height="40" as="geometry" />
        </mxCell>
        <mxCell id="d9wNvwzPSucR8l-naQEp-77" value="5" style="rounded=0;whiteSpace=wrap;html=1;fontFamily=Songti TC;fillColor=#dae8fc;strokeColor=#6c8ebf;" parent="1" vertex="1">
          <mxGeometry x="360" y="625" width="40" height="40" as="geometry" />
        </mxCell>
        <mxCell id="d9wNvwzPSucR8l-naQEp-78" value="下标" style="text;html=1;align=center;verticalAlign=middle;resizable=0;points=[];autosize=1;strokeColor=none;fillColor=none;fontFamily=Songti TC;" parent="1" vertex="1">
          <mxGeometry x="110" y="660" width="50" height="30" as="geometry" />
        </mxCell>
        <mxCell id="d9wNvwzPSucR8l-naQEp-79" value="&lt;font style=&quot;font-size: 18px;&quot;&gt;arr&lt;/font&gt;" style="text;html=1;align=center;verticalAlign=middle;resizable=0;points=[];autosize=1;strokeColor=none;fillColor=none;fontFamily=Songti TC;" parent="1" vertex="1">
          <mxGeometry x="110" y="625" width="50" height="40" as="geometry" />
        </mxCell>
        <mxCell id="d9wNvwzPSucR8l-naQEp-80" value="0" style="rounded=0;whiteSpace=wrap;html=1;fontFamily=Songti TC;container=0;" parent="1" vertex="1">
          <mxGeometry x="160" y="665" width="40" height="20" as="geometry" />
        </mxCell>
        <mxCell id="d9wNvwzPSucR8l-naQEp-81" value="1" style="rounded=0;whiteSpace=wrap;html=1;fontFamily=Songti TC;container=0;" parent="1" vertex="1">
          <mxGeometry x="200" y="665" width="40" height="20" as="geometry" />
        </mxCell>
        <mxCell id="d9wNvwzPSucR8l-naQEp-82" value="2" style="rounded=0;whiteSpace=wrap;html=1;fontFamily=Songti TC;container=0;" parent="1" vertex="1">
          <mxGeometry x="240" y="665" width="40" height="20" as="geometry" />
        </mxCell>
        <mxCell id="d9wNvwzPSucR8l-naQEp-83" value="3" style="rounded=0;whiteSpace=wrap;html=1;fontFamily=Songti TC;container=0;" parent="1" vertex="1">
          <mxGeometry x="280" y="665" width="40" height="20" as="geometry" />
        </mxCell>
        <mxCell id="d9wNvwzPSucR8l-naQEp-84" value="4" style="rounded=0;whiteSpace=wrap;html=1;fontFamily=Songti TC;container=0;" parent="1" vertex="1">
          <mxGeometry x="320" y="665" width="40" height="20" as="geometry" />
        </mxCell>
        <mxCell id="d9wNvwzPSucR8l-naQEp-85" value="5" style="rounded=0;whiteSpace=wrap;html=1;fontFamily=Songti TC;container=0;" parent="1" vertex="1">
          <mxGeometry x="360" y="665" width="40" height="20" as="geometry" />
        </mxCell>
        <mxCell id="d9wNvwzPSucR8l-naQEp-86" value="&lt;font style=&quot;&quot; color=&quot;#000000&quot;&gt;&lt;span style=&quot;font-size: 13px;&quot;&gt;i和j相遇，这一趟递归结束&lt;/span&gt;&lt;br&gt;&lt;/font&gt;" style="text;html=1;align=left;verticalAlign=middle;resizable=0;points=[];autosize=1;strokeColor=none;fillColor=none;fontColor=#0000FF;fontSize=15;fontFamily=Songti TC;" parent="1" vertex="1">
          <mxGeometry x="195" y="690" width="170" height="30" as="geometry" />
        </mxCell>
        <mxCell id="d9wNvwzPSucR8l-naQEp-87" value="i" style="text;html=1;align=center;verticalAlign=middle;resizable=0;points=[];autosize=1;strokeColor=none;fillColor=none;fontColor=#0000FF;fontSize=20;fontFamily=Songti TC;" parent="1" vertex="1">
          <mxGeometry x="235" y="585" width="30" height="40" as="geometry" />
        </mxCell>
        <mxCell id="d9wNvwzPSucR8l-naQEp-88" value="&lt;font color=&quot;#ff0000&quot;&gt;j&lt;/font&gt;" style="text;html=1;align=center;verticalAlign=middle;resizable=0;points=[];autosize=1;strokeColor=none;fillColor=none;fontColor=#0000FF;fontSize=20;fontFamily=Songti TC;" parent="1" vertex="1">
          <mxGeometry x="255" y="585" width="30" height="40" as="geometry" />
        </mxCell>
        <mxCell id="d9wNvwzPSucR8l-naQEp-89" value="6" style="rounded=0;whiteSpace=wrap;html=1;fontFamily=Songti TC;" parent="1" vertex="1">
          <mxGeometry x="773" y="211" width="40" height="40" as="geometry" />
        </mxCell>
        <mxCell id="d9wNvwzPSucR8l-naQEp-90" value="4" style="rounded=0;whiteSpace=wrap;html=1;fontFamily=Songti TC;" parent="1" vertex="1">
          <mxGeometry x="813" y="211" width="40" height="40" as="geometry" />
        </mxCell>
        <mxCell id="d9wNvwzPSucR8l-naQEp-91" value="3" style="rounded=0;whiteSpace=wrap;html=1;fontFamily=Songti TC;" parent="1" vertex="1">
          <mxGeometry x="853" y="211" width="40" height="40" as="geometry" />
        </mxCell>
        <mxCell id="d9wNvwzPSucR8l-naQEp-92" value="2" style="rounded=0;whiteSpace=wrap;html=1;fontFamily=Songti TC;" parent="1" vertex="1">
          <mxGeometry x="893" y="211" width="40" height="40" as="geometry" />
        </mxCell>
        <mxCell id="d9wNvwzPSucR8l-naQEp-93" value="3" style="rounded=0;whiteSpace=wrap;html=1;fontFamily=Songti TC;" parent="1" vertex="1">
          <mxGeometry x="933" y="211" width="40" height="40" as="geometry" />
        </mxCell>
        <mxCell id="d9wNvwzPSucR8l-naQEp-94" value="5" style="rounded=0;whiteSpace=wrap;html=1;fontFamily=Songti TC;" parent="1" vertex="1">
          <mxGeometry x="973" y="211" width="40" height="40" as="geometry" />
        </mxCell>
        <mxCell id="d9wNvwzPSucR8l-naQEp-95" value="0" style="rounded=0;whiteSpace=wrap;html=1;fontFamily=Songti TC;container=0;" parent="1" vertex="1">
          <mxGeometry x="773" y="251" width="40" height="20" as="geometry" />
        </mxCell>
        <mxCell id="d9wNvwzPSucR8l-naQEp-96" value="1" style="rounded=0;whiteSpace=wrap;html=1;fontFamily=Songti TC;container=0;" parent="1" vertex="1">
          <mxGeometry x="813" y="251" width="40" height="20" as="geometry" />
        </mxCell>
        <mxCell id="d9wNvwzPSucR8l-naQEp-97" value="2" style="rounded=0;whiteSpace=wrap;html=1;fontFamily=Songti TC;container=0;" parent="1" vertex="1">
          <mxGeometry x="853" y="251" width="40" height="20" as="geometry" />
        </mxCell>
        <mxCell id="d9wNvwzPSucR8l-naQEp-98" value="3" style="rounded=0;whiteSpace=wrap;html=1;fontFamily=Songti TC;container=0;" parent="1" vertex="1">
          <mxGeometry x="893" y="251" width="40" height="20" as="geometry" />
        </mxCell>
        <mxCell id="d9wNvwzPSucR8l-naQEp-99" value="4" style="rounded=0;whiteSpace=wrap;html=1;fontFamily=Songti TC;container=0;" parent="1" vertex="1">
          <mxGeometry x="933" y="251" width="40" height="20" as="geometry" />
        </mxCell>
        <mxCell id="d9wNvwzPSucR8l-naQEp-100" value="5" style="rounded=0;whiteSpace=wrap;html=1;fontFamily=Songti TC;container=0;" parent="1" vertex="1">
          <mxGeometry x="973" y="251" width="40" height="20" as="geometry" />
        </mxCell>
        <mxCell id="d9wNvwzPSucR8l-naQEp-101" value="6" style="rounded=0;whiteSpace=wrap;html=1;fontFamily=Songti TC;" parent="1" vertex="1">
          <mxGeometry x="733" y="370" width="40" height="40" as="geometry" />
        </mxCell>
        <mxCell id="d9wNvwzPSucR8l-naQEp-102" value="4" style="rounded=0;whiteSpace=wrap;html=1;fontFamily=Songti TC;" parent="1" vertex="1">
          <mxGeometry x="773" y="370" width="40" height="40" as="geometry" />
        </mxCell>
        <mxCell id="d9wNvwzPSucR8l-naQEp-103" value="3" style="rounded=0;whiteSpace=wrap;html=1;fontFamily=Songti TC;" parent="1" vertex="1">
          <mxGeometry x="813" y="370" width="40" height="40" as="geometry" />
        </mxCell>
        <mxCell id="d9wNvwzPSucR8l-naQEp-104" value="0" style="rounded=0;whiteSpace=wrap;html=1;fontFamily=Songti TC;container=0;" parent="1" vertex="1">
          <mxGeometry x="733" y="410" width="40" height="20" as="geometry" />
        </mxCell>
        <mxCell id="d9wNvwzPSucR8l-naQEp-105" value="1" style="rounded=0;whiteSpace=wrap;html=1;fontFamily=Songti TC;container=0;" parent="1" vertex="1">
          <mxGeometry x="773" y="410" width="40" height="20" as="geometry" />
        </mxCell>
        <mxCell id="d9wNvwzPSucR8l-naQEp-106" value="2" style="rounded=0;whiteSpace=wrap;html=1;fontFamily=Songti TC;container=0;" parent="1" vertex="1">
          <mxGeometry x="813" y="410" width="40" height="20" as="geometry" />
        </mxCell>
        <mxCell id="d9wNvwzPSucR8l-naQEp-107" value="2" style="rounded=0;whiteSpace=wrap;html=1;fontFamily=Songti TC;" parent="1" vertex="1">
          <mxGeometry x="943" y="372" width="40" height="40" as="geometry" />
        </mxCell>
        <mxCell id="d9wNvwzPSucR8l-naQEp-108" value="3" style="rounded=0;whiteSpace=wrap;html=1;fontFamily=Songti TC;" parent="1" vertex="1">
          <mxGeometry x="983" y="372" width="40" height="40" as="geometry" />
        </mxCell>
        <mxCell id="d9wNvwzPSucR8l-naQEp-109" value="5" style="rounded=0;whiteSpace=wrap;html=1;fontFamily=Songti TC;" parent="1" vertex="1">
          <mxGeometry x="1023" y="372" width="40" height="40" as="geometry" />
        </mxCell>
        <mxCell id="d9wNvwzPSucR8l-naQEp-110" value="3" style="rounded=0;whiteSpace=wrap;html=1;fontFamily=Songti TC;container=0;" parent="1" vertex="1">
          <mxGeometry x="943" y="412" width="40" height="20" as="geometry" />
        </mxCell>
        <mxCell id="d9wNvwzPSucR8l-naQEp-111" value="4" style="rounded=0;whiteSpace=wrap;html=1;fontFamily=Songti TC;container=0;" parent="1" vertex="1">
          <mxGeometry x="983" y="412" width="40" height="20" as="geometry" />
        </mxCell>
        <mxCell id="d9wNvwzPSucR8l-naQEp-112" value="5" style="rounded=0;whiteSpace=wrap;html=1;fontFamily=Songti TC;container=0;" parent="1" vertex="1">
          <mxGeometry x="1023" y="412" width="40" height="20" as="geometry" />
        </mxCell>
        <mxCell id="d9wNvwzPSucR8l-naQEp-113" value="" style="endArrow=classic;html=1;rounded=0;" parent="1" edge="1">
          <mxGeometry width="50" height="50" relative="1" as="geometry">
            <mxPoint x="880" y="280" as="sourcePoint" />
            <mxPoint x="830" y="330" as="targetPoint" />
          </mxGeometry>
        </mxCell>
        <mxCell id="d9wNvwzPSucR8l-naQEp-115" value="" style="endArrow=classic;html=1;rounded=0;" parent="1" edge="1">
          <mxGeometry width="50" height="50" relative="1" as="geometry">
            <mxPoint x="910" y="280" as="sourcePoint" />
            <mxPoint x="960" y="330" as="targetPoint" />
          </mxGeometry>
        </mxCell>
        <mxCell id="d9wNvwzPSucR8l-naQEp-116" value="&lt;font color=&quot;#000000&quot;&gt;L&lt;/font&gt;" style="text;html=1;align=center;verticalAlign=middle;resizable=0;points=[];autosize=1;strokeColor=none;fillColor=none;fontColor=#0000FF;fontSize=20;fontFamily=Songti TC;" parent="1" vertex="1">
          <mxGeometry x="160" y="160" width="40" height="40" as="geometry" />
        </mxCell>
        <mxCell id="d9wNvwzPSucR8l-naQEp-117" value="&lt;font color=&quot;#000000&quot;&gt;R&lt;/font&gt;" style="text;html=1;align=center;verticalAlign=middle;resizable=0;points=[];autosize=1;strokeColor=none;fillColor=none;fontColor=#0000FF;fontSize=20;fontFamily=Songti TC;" parent="1" vertex="1">
          <mxGeometry x="360" y="160" width="40" height="40" as="geometry" />
        </mxCell>
        <mxCell id="d9wNvwzPSucR8l-naQEp-118" value="&lt;font color=&quot;#000000&quot;&gt;L&lt;/font&gt;" style="text;html=1;align=center;verticalAlign=middle;resizable=0;points=[];autosize=1;strokeColor=none;fillColor=none;fontColor=#0000FF;fontSize=20;fontFamily=Songti TC;" parent="1" vertex="1">
          <mxGeometry x="160" y="585" width="40" height="40" as="geometry" />
        </mxCell>
        <mxCell id="d9wNvwzPSucR8l-naQEp-119" value="&lt;font color=&quot;#000000&quot;&gt;R&lt;/font&gt;" style="text;html=1;align=center;verticalAlign=middle;resizable=0;points=[];autosize=1;strokeColor=none;fillColor=none;fontColor=#0000FF;fontSize=20;fontFamily=Songti TC;" parent="1" vertex="1">
          <mxGeometry x="360" y="585" width="40" height="40" as="geometry" />
        </mxCell>
        <mxCell id="d9wNvwzPSucR8l-naQEp-120" value="&lt;font color=&quot;#000000&quot;&gt;L&lt;/font&gt;" style="text;html=1;align=center;verticalAlign=middle;resizable=0;points=[];autosize=1;strokeColor=none;fillColor=none;fontColor=#0000FF;fontSize=20;fontFamily=Songti TC;" parent="1" vertex="1">
          <mxGeometry x="773" y="171" width="40" height="40" as="geometry" />
        </mxCell>
        <mxCell id="d9wNvwzPSucR8l-naQEp-121" value="&lt;font color=&quot;#000000&quot;&gt;R&lt;/font&gt;" style="text;html=1;align=center;verticalAlign=middle;resizable=0;points=[];autosize=1;strokeColor=none;fillColor=none;fontColor=#0000FF;fontSize=20;fontFamily=Songti TC;" parent="1" vertex="1">
          <mxGeometry x="973" y="171" width="40" height="40" as="geometry" />
        </mxCell>
        <mxCell id="d9wNvwzPSucR8l-naQEp-122" value="&lt;font color=&quot;#000000&quot;&gt;i、j&lt;/font&gt;" style="text;html=1;align=center;verticalAlign=middle;resizable=0;points=[];autosize=1;strokeColor=none;fillColor=none;fontColor=#0000FF;fontSize=20;fontFamily=Songti TC;" parent="1" vertex="1">
          <mxGeometry x="848" y="171" width="50" height="40" as="geometry" />
        </mxCell>
        <mxCell id="d9wNvwzPSucR8l-naQEp-123" value="&lt;font color=&quot;#000000&quot;&gt;L&lt;/font&gt;" style="text;html=1;align=center;verticalAlign=middle;resizable=0;points=[];autosize=1;strokeColor=none;fillColor=none;fontColor=#0000FF;fontSize=20;fontFamily=Songti TC;" parent="1" vertex="1">
          <mxGeometry x="733" y="335" width="40" height="40" as="geometry" />
        </mxCell>
        <mxCell id="d9wNvwzPSucR8l-naQEp-124" value="&lt;font color=&quot;#000000&quot;&gt;R&lt;/font&gt;" style="text;html=1;align=center;verticalAlign=middle;resizable=0;points=[];autosize=1;strokeColor=none;fillColor=none;fontColor=#0000FF;fontSize=20;fontFamily=Songti TC;" parent="1" vertex="1">
          <mxGeometry x="1013" y="335" width="40" height="40" as="geometry" />
        </mxCell>
        <mxCell id="d9wNvwzPSucR8l-naQEp-125" value="&lt;font color=&quot;#000000&quot;&gt;j&lt;/font&gt;" style="text;html=1;align=center;verticalAlign=middle;resizable=0;points=[];autosize=1;strokeColor=none;fillColor=none;fontColor=#0000FF;fontSize=20;fontFamily=Songti TC;" parent="1" vertex="1">
          <mxGeometry x="818" y="335" width="30" height="40" as="geometry" />
        </mxCell>
        <mxCell id="d9wNvwzPSucR8l-naQEp-126" value="&lt;font color=&quot;#000000&quot;&gt;j + 1&lt;/font&gt;" style="text;html=1;align=center;verticalAlign=middle;resizable=0;points=[];autosize=1;strokeColor=none;fillColor=none;fontColor=#0000FF;fontSize=20;fontFamily=Songti TC;" parent="1" vertex="1">
          <mxGeometry x="933" y="340" width="60" height="40" as="geometry" />
        </mxCell>
        <mxCell id="d9wNvwzPSucR8l-naQEp-128" value="&lt;div style=&quot;text-align: left;&quot;&gt;&lt;span style=&quot;font-size: 11px; background-color: initial;&quot;&gt;i和j指针相遇时相等，&lt;/span&gt;&lt;/div&gt;&lt;font style=&quot;font-size: 11px;&quot;&gt;&lt;div style=&quot;text-align: left;&quot;&gt;&lt;span style=&quot;background-color: initial;&quot;&gt;下面以j指针为例&lt;/span&gt;&lt;/div&gt;&lt;/font&gt;" style="text;html=1;align=center;verticalAlign=middle;resizable=0;points=[];autosize=1;strokeColor=none;fillColor=none;fontColor=#0000FF;fontSize=20;fontFamily=Songti TC;" parent="1" vertex="1">
          <mxGeometry x="700" y="280" width="140" height="50" as="geometry" />
        </mxCell>
        <mxCell id="gNFgUsxPpQUOQiZbJuLc-1" value="&lt;div style=&quot;text-align: left;&quot;&gt;&lt;font style=&quot;font-size: 18px;&quot;&gt;区间划分--递归层次&lt;/font&gt;&lt;/div&gt;" style="text;html=1;align=center;verticalAlign=middle;resizable=0;points=[];autosize=1;strokeColor=none;fillColor=none;fontColor=#0000FF;fontSize=20;fontFamily=Songti TC;" parent="1" vertex="1">
          <mxGeometry x="675" y="131" width="180" height="40" as="geometry" />
        </mxCell>
        <mxCell id="gNFgUsxPpQUOQiZbJuLc-3" value="" style="endArrow=classic;html=1;rounded=0;" parent="1" edge="1">
          <mxGeometry width="50" height="50" relative="1" as="geometry">
            <mxPoint x="778" y="450" as="sourcePoint" />
            <mxPoint x="728" y="500" as="targetPoint" />
          </mxGeometry>
        </mxCell>
        <mxCell id="gNFgUsxPpQUOQiZbJuLc-4" value="" style="endArrow=classic;html=1;rounded=0;" parent="1" edge="1">
          <mxGeometry width="50" height="50" relative="1" as="geometry">
            <mxPoint x="808" y="450" as="sourcePoint" />
            <mxPoint x="858" y="500" as="targetPoint" />
          </mxGeometry>
        </mxCell>
        <mxCell id="gNFgUsxPpQUOQiZbJuLc-5" value="" style="endArrow=classic;html=1;rounded=0;" parent="1" edge="1">
          <mxGeometry width="50" height="50" relative="1" as="geometry">
            <mxPoint x="988" y="450" as="sourcePoint" />
            <mxPoint x="938" y="500" as="targetPoint" />
          </mxGeometry>
        </mxCell>
        <mxCell id="gNFgUsxPpQUOQiZbJuLc-6" value="" style="endArrow=classic;html=1;rounded=0;" parent="1" edge="1">
          <mxGeometry width="50" height="50" relative="1" as="geometry">
            <mxPoint x="1018" y="450" as="sourcePoint" />
            <mxPoint x="1068" y="500" as="targetPoint" />
          </mxGeometry>
        </mxCell>
        <mxCell id="gNFgUsxPpQUOQiZbJuLc-7" value="6" style="rounded=0;whiteSpace=wrap;html=1;fontFamily=Songti TC;" parent="1" vertex="1">
          <mxGeometry x="693" y="520" width="40" height="40" as="geometry" />
        </mxCell>
        <mxCell id="gNFgUsxPpQUOQiZbJuLc-8" value="4" style="rounded=0;whiteSpace=wrap;html=1;fontFamily=Songti TC;" parent="1" vertex="1">
          <mxGeometry x="793" y="520" width="40" height="40" as="geometry" />
        </mxCell>
        <mxCell id="gNFgUsxPpQUOQiZbJuLc-9" value="3" style="rounded=0;whiteSpace=wrap;html=1;fontFamily=Songti TC;" parent="1" vertex="1">
          <mxGeometry x="833" y="520" width="40" height="40" as="geometry" />
        </mxCell>
        <mxCell id="gNFgUsxPpQUOQiZbJuLc-10" value="0" style="rounded=0;whiteSpace=wrap;html=1;fontFamily=Songti TC;container=0;" parent="1" vertex="1">
          <mxGeometry x="693" y="560" width="40" height="20" as="geometry" />
        </mxCell>
        <mxCell id="gNFgUsxPpQUOQiZbJuLc-11" value="1" style="rounded=0;whiteSpace=wrap;html=1;fontFamily=Songti TC;container=0;" parent="1" vertex="1">
          <mxGeometry x="793" y="560" width="40" height="20" as="geometry" />
        </mxCell>
        <mxCell id="gNFgUsxPpQUOQiZbJuLc-12" value="2" style="rounded=0;whiteSpace=wrap;html=1;fontFamily=Songti TC;container=0;" parent="1" vertex="1">
          <mxGeometry x="833" y="560" width="40" height="20" as="geometry" />
        </mxCell>
        <mxCell id="gNFgUsxPpQUOQiZbJuLc-15" value="2" style="rounded=0;whiteSpace=wrap;html=1;fontFamily=Songti TC;" parent="1" vertex="1">
          <mxGeometry x="903" y="520" width="40" height="40" as="geometry" />
        </mxCell>
        <mxCell id="gNFgUsxPpQUOQiZbJuLc-16" value="3" style="rounded=0;whiteSpace=wrap;html=1;fontFamily=Songti TC;" parent="1" vertex="1">
          <mxGeometry x="943" y="520" width="40" height="40" as="geometry" />
        </mxCell>
        <mxCell id="gNFgUsxPpQUOQiZbJuLc-17" value="5" style="rounded=0;whiteSpace=wrap;html=1;fontFamily=Songti TC;" parent="1" vertex="1">
          <mxGeometry x="1063" y="520" width="40" height="40" as="geometry" />
        </mxCell>
        <mxCell id="gNFgUsxPpQUOQiZbJuLc-18" value="3" style="rounded=0;whiteSpace=wrap;html=1;fontFamily=Songti TC;container=0;" parent="1" vertex="1">
          <mxGeometry x="903" y="560" width="40" height="20" as="geometry" />
        </mxCell>
        <mxCell id="gNFgUsxPpQUOQiZbJuLc-19" value="4" style="rounded=0;whiteSpace=wrap;html=1;fontFamily=Songti TC;container=0;" parent="1" vertex="1">
          <mxGeometry x="943" y="560" width="40" height="20" as="geometry" />
        </mxCell>
        <mxCell id="gNFgUsxPpQUOQiZbJuLc-20" value="5" style="rounded=0;whiteSpace=wrap;html=1;fontFamily=Songti TC;container=0;" parent="1" vertex="1">
          <mxGeometry x="1063" y="560" width="40" height="20" as="geometry" />
        </mxCell>
        <mxCell id="gNFgUsxPpQUOQiZbJuLc-27" value="4" style="rounded=0;whiteSpace=wrap;html=1;fontFamily=Songti TC;" parent="1" vertex="1">
          <mxGeometry x="773" y="625" width="40" height="40" as="geometry" />
        </mxCell>
        <mxCell id="gNFgUsxPpQUOQiZbJuLc-28" value="3" style="rounded=0;whiteSpace=wrap;html=1;fontFamily=Songti TC;" parent="1" vertex="1">
          <mxGeometry x="845" y="625" width="40" height="40" as="geometry" />
        </mxCell>
        <mxCell id="gNFgUsxPpQUOQiZbJuLc-29" value="1" style="rounded=0;whiteSpace=wrap;html=1;fontFamily=Songti TC;container=0;" parent="1" vertex="1">
          <mxGeometry x="773" y="665" width="40" height="20" as="geometry" />
        </mxCell>
        <mxCell id="gNFgUsxPpQUOQiZbJuLc-30" value="2" style="rounded=0;whiteSpace=wrap;html=1;fontFamily=Songti TC;container=0;" parent="1" vertex="1">
          <mxGeometry x="845" y="665" width="40" height="20" as="geometry" />
        </mxCell>
        <mxCell id="gNFgUsxPpQUOQiZbJuLc-31" value="" style="group" parent="1" vertex="1" connectable="0">
          <mxGeometry x="794.5" y="585" width="77" height="35" as="geometry" />
        </mxCell>
        <mxCell id="gNFgUsxPpQUOQiZbJuLc-23" value="" style="endArrow=classic;html=1;rounded=0;" parent="gNFgUsxPpQUOQiZbJuLc-31" edge="1">
          <mxGeometry width="50" height="50" relative="1" as="geometry">
            <mxPoint x="38.5" as="sourcePoint" />
            <mxPoint y="35" as="targetPoint" />
          </mxGeometry>
        </mxCell>
        <mxCell id="gNFgUsxPpQUOQiZbJuLc-24" value="" style="endArrow=classic;html=1;rounded=0;" parent="gNFgUsxPpQUOQiZbJuLc-31" edge="1">
          <mxGeometry width="50" height="50" relative="1" as="geometry">
            <mxPoint x="38.5" as="sourcePoint" />
            <mxPoint x="77" y="35" as="targetPoint" />
          </mxGeometry>
        </mxCell>
        <mxCell id="gNFgUsxPpQUOQiZbJuLc-32" value="" style="group" parent="1" vertex="1" connectable="0">
          <mxGeometry x="905" y="585" width="77" height="35" as="geometry" />
        </mxCell>
        <mxCell id="gNFgUsxPpQUOQiZbJuLc-33" value="" style="endArrow=classic;html=1;rounded=0;" parent="gNFgUsxPpQUOQiZbJuLc-32" edge="1">
          <mxGeometry width="50" height="50" relative="1" as="geometry">
            <mxPoint x="38.5" as="sourcePoint" />
            <mxPoint y="35" as="targetPoint" />
          </mxGeometry>
        </mxCell>
        <mxCell id="gNFgUsxPpQUOQiZbJuLc-34" value="" style="endArrow=classic;html=1;rounded=0;" parent="gNFgUsxPpQUOQiZbJuLc-32" edge="1">
          <mxGeometry width="50" height="50" relative="1" as="geometry">
            <mxPoint x="38.5" as="sourcePoint" />
            <mxPoint x="77" y="35" as="targetPoint" />
          </mxGeometry>
        </mxCell>
        <mxCell id="gNFgUsxPpQUOQiZbJuLc-35" value="2" style="rounded=0;whiteSpace=wrap;html=1;fontFamily=Songti TC;" parent="1" vertex="1">
          <mxGeometry x="893" y="625" width="40" height="40" as="geometry" />
        </mxCell>
        <mxCell id="gNFgUsxPpQUOQiZbJuLc-36" value="3" style="rounded=0;whiteSpace=wrap;html=1;fontFamily=Songti TC;" parent="1" vertex="1">
          <mxGeometry x="960" y="625" width="40" height="40" as="geometry" />
        </mxCell>
        <mxCell id="gNFgUsxPpQUOQiZbJuLc-37" value="3" style="rounded=0;whiteSpace=wrap;html=1;fontFamily=Songti TC;container=0;" parent="1" vertex="1">
          <mxGeometry x="893" y="665" width="40" height="20" as="geometry" />
        </mxCell>
        <mxCell id="gNFgUsxPpQUOQiZbJuLc-38" value="4" style="rounded=0;whiteSpace=wrap;html=1;fontFamily=Songti TC;container=0;" parent="1" vertex="1">
          <mxGeometry x="960" y="665" width="40" height="20" as="geometry" />
        </mxCell>
      </root>
    </mxGraphModel>
  </diagram>
</mxfile>
